{
    "asset" : {
        "generator" : "Khronos glTF Blender I/O v1.7.33",
        "version" : "2.0"
    },
    "scene" : 0,
    "scenes" : [
        {
            "name" : "Scene",
            "nodes" : [
                4
            ]
        }
    ],
    "nodes" : [
        {
            "name" : "Bone.L",
            "rotation" : [
                -0.5980963706970215,
                -0.3772014081478119,
                -0.37720122933387756,
                0.5980961918830872
            ],
            "translation" : [
                0.5931297540664673,
                0,
                0.3979378044605255
            ]
        },
        {
            "name" : "Bone.R",
            "rotation" : [
                -0.5980963706970215,
                0.37720149755477905,
                0.3772013187408447,
                0.5980961322784424
            ],
            "scale" : [
                1.0000001192092896,
                1,
                0.9999999403953552
            ],
            "translation" : [
                -0.5931297540664673,
                -1.5987211554602254e-14,
                0.39793795347213745
            ]
        },
        {
            "children" : [
                0,
                1
            ],
            "name" : "Bone.001",
            "rotation" : [
                0.7071068286895752,
                -5.338508302088485e-08,
                -5.338508302088485e-08,
                0.7071068286895752
            ],
            "translation" : [
                -3.019806626980426e-14,
                0.13180792331695557,
                0
            ]
        },
        {
            "mesh" : 0,
            "name" : "Suzanne",
            "skin" : 0
        },
        {
            "children" : [
                3,
                2
            ],
            "name" : "Armature"
        }
    ],
    "animations" : [
        {
            "channels" : [
                {
                    "sampler" : 0,
                    "target" : {
                        "node" : 2,
                        "path" : "translation"
                    }
                },
                {
                    "sampler" : 1,
                    "target" : {
                        "node" : 2,
                        "path" : "rotation"
                    }
                },
                {
                    "sampler" : 2,
                    "target" : {
                        "node" : 2,
                        "path" : "scale"
                    }
                },
                {
                    "sampler" : 3,
                    "target" : {
                        "node" : 0,
                        "path" : "translation"
                    }
                },
                {
                    "sampler" : 4,
                    "target" : {
                        "node" : 0,
                        "path" : "rotation"
                    }
                },
                {
                    "sampler" : 5,
                    "target" : {
                        "node" : 0,
                        "path" : "scale"
                    }
                },
                {
                    "sampler" : 6,
                    "target" : {
                        "node" : 1,
                        "path" : "translation"
                    }
                },
                {
                    "sampler" : 7,
                    "target" : {
                        "node" : 1,
                        "path" : "rotation"
                    }
                },
                {
                    "sampler" : 8,
                    "target" : {
                        "node" : 1,
                        "path" : "scale"
                    }
                }
            ],
            "name" : "ArmatureAction",
            "samplers" : [
                {
                    "input" : 7,
                    "interpolation" : "LINEAR",
                    "output" : 8
                },
                {
                    "input" : 9,
                    "interpolation" : "LINEAR",
                    "output" : 10
                },
                {
                    "input" : 9,
                    "interpolation" : "LINEAR",
                    "output" : 11
                },
                {
                    "input" : 7,
                    "interpolation" : "LINEAR",
                    "output" : 12
                },
                {
                    "input" : 9,
                    "interpolation" : "LINEAR",
                    "output" : 13
                },
                {
                    "input" : 9,
                    "interpolation" : "LINEAR",
                    "output" : 14
                },
                {
                    "input" : 7,
                    "interpolation" : "LINEAR",
                    "output" : 15
                },
                {
                    "input" : 9,
                    "interpolation" : "LINEAR",
                    "output" : 16
                },
                {
                    "input" : 9,
                    "interpolation" : "LINEAR",
                    "output" : 17
                }
            ]
        }
    ],
    "materials" : [
        {
            "doubleSided" : true,
            "name" : "Material.001",
            "pbrMetallicRoughness" : {
                "baseColorTexture" : {
                    "index" : 0
                },
                "metallicFactor" : 0,
                "roughnessFactor" : 0.5
            }
        }
    ],
    "meshes" : [
        {
            "name" : "Suzanne",
            "primitives" : [
                {
                    "attributes" : {
                        "POSITION" : 0,
                        "NORMAL" : 1,
                        "TEXCOORD_0" : 2,
                        "JOINTS_0" : 3,
                        "WEIGHTS_0" : 4
                    },
                    "indices" : 5,
                    "material" : 0
                }
            ]
        }
    ],
    "textures" : [
        {
            "sampler" : 0,
            "source" : 0
        }
    ],
    "images" : [
        {
            "mimeType" : "image/png",
            "name" : "1",
            "uri" : "1.png"
        }
    ],
    "skins" : [
        {
            "inverseBindMatrices" : 6,
            "joints" : [
                2,
                0,
                1
            ],
            "name" : "Armature"
        }
    ],
    "accessors" : [
        {
            "bufferView" : 0,
            "componentType" : 5126,
            "count" : 1966,
            "max" : [
                1.3671875,
                0.984375,
                0.8515625
            ],
            "min" : [
                -1.3671875,
                -0.984375,
                -0.8515625
            ],
            "type" : "VEC3"
        },
        {
            "bufferView" : 1,
            "componentType" : 5126,
            "count" : 1966,
            "type" : "VEC3"
        },
        {
            "bufferView" : 2,
            "componentType" : 5126,
            "count" : 1966,
            "type" : "VEC2"
        },
        {
            "bufferView" : 3,
            "componentType" : 5121,
            "count" : 1966,
            "type" : "VEC4"
        },
        {
            "bufferView" : 4,
            "componentType" : 5126,
            "count" : 1966,
            "type" : "VEC4"
        },
        {
            "bufferView" : 5,
            "componentType" : 5123,
            "count" : 2904,
            "type" : "SCALAR"
        },
        {
            "bufferView" : 6,
            "componentType" : 5126,
            "count" : 3,
            "type" : "MAT4"
        },
        {
            "bufferView" : 7,
            "componentType" : 5126,
            "count" : 19,
            "max" : [
                0.7916666666666666
            ],
            "min" : [
                0.041666666666666664
            ],
            "type" : "SCALAR"
        },
        {
            "bufferView" : 8,
            "componentType" : 5126,
            "count" : 19,
            "type" : "VEC3"
        },
        {
            "bufferView" : 9,
            "componentType" : 5126,
            "count" : 2,
            "max" : [
                0.7916666666666666
            ],
            "min" : [
                0.041666666666666664
            ],
            "type" : "SCALAR"
        },
        {
            "bufferView" : 10,
            "componentType" : 5126,
            "count" : 2,
            "type" : "VEC4"
        },
        {
            "bufferView" : 11,
            "componentType" : 5126,
            "count" : 2,
            "type" : "VEC3"
        },
        {
            "bufferView" : 12,
            "componentType" : 5126,
            "count" : 19,
            "type" : "VEC3"
        },
        {
            "bufferView" : 13,
            "componentType" : 5126,
            "count" : 2,
            "type" : "VEC4"
        },
        {
            "bufferView" : 14,
            "componentType" : 5126,
            "count" : 2,
            "type" : "VEC3"
        },
        {
            "bufferView" : 15,
            "componentType" : 5126,
            "count" : 19,
            "type" : "VEC3"
        },
        {
            "bufferView" : 16,
            "componentType" : 5126,
            "count" : 2,
            "type" : "VEC4"
        },
        {
            "bufferView" : 17,
            "componentType" : 5126,
            "count" : 2,
            "type" : "VEC3"
        }
    ],
    "bufferViews" : [
        {
            "buffer" : 0,
            "byteLength" : 23592,
            "byteOffset" : 0
        },
        {
            "buffer" : 0,
            "byteLength" : 23592,
            "byteOffset" : 23592
        },
        {
            "buffer" : 0,
            "byteLength" : 15728,
            "byteOffset" : 47184
        },
        {
            "buffer" : 0,
            "byteLength" : 7864,
            "byteOffset" : 62912
        },
        {
            "buffer" : 0,
            "byteLength" : 31456,
            "byteOffset" : 70776
        },
        {
            "buffer" : 0,
            "byteLength" : 5808,
            "byteOffset" : 102232
        },
        {
            "buffer" : 0,
            "byteLength" : 192,
            "byteOffset" : 108040
        },
        {
            "buffer" : 0,
            "byteLength" : 76,
            "byteOffset" : 108232
        },
        {
            "buffer" : 0,
            "byteLength" : 228,
            "byteOffset" : 108308
        },
        {
            "buffer" : 0,
            "byteLength" : 8,
            "byteOffset" : 108536
        },
        {
            "buffer" : 0,
            "byteLength" : 32,
            "byteOffset" : 108544
        },
        {
            "buffer" : 0,
            "byteLength" : 24,
            "byteOffset" : 108576
        },
        {
            "buffer" : 0,
            "byteLength" : 228,
            "byteOffset" : 108600
        },
        {
            "buffer" : 0,
            "byteLength" : 32,
            "byteOffset" : 108828
        },
        {
            "buffer" : 0,
            "byteLength" : 24,
            "byteOffset" : 108860
        },
        {
            "buffer" : 0,
            "byteLength" : 228,
            "byteOffset" : 108884
        },
        {
            "buffer" : 0,
            "byteLength" : 32,
            "byteOffset" : 109112
        },
        {
            "buffer" : 0,
            "byteLength" : 24,
            "byteOffset" : 109144
        }
    ],
    "samplers" : [
        {
            "magFilter" : 9729,
            "minFilter" : 9987
        }
    ],
    "buffers" : [
        {
            "byteLength" : 109168,
            "uri" : "Monkey.bin"
        }
    ]
}
